<svg width="65" height="48" viewBox="0 0 65 48" fill="none" xmlns="http://www.w3.org/2000/svg">
    <g id="logo">
        <path d="M5.41669 24L17.0233 42L32.5 29L5.41669 24Z" stroke="#00C1EC" stroke-width="4" stroke-linecap="round"
              stroke-linejoin="round"/>
        <path d="M59.5833 24L47.9768 42L32.5 29L59.5833 24Z" stroke="#00C1EC" stroke-width="4" stroke-linecap="round"
              stroke-linejoin="round"/>
        <path d="M17.6042 42H47.3959L32.5 29L17.6042 42Z" stroke="#00C1EC" stroke-width="4" stroke-linecap="round"
              stroke-linejoin="round"/>
        <path d="M16.25 26L32.5 4L48.75 26" stroke="#00C1EC" stroke-width="4" stroke-linejoin="round"/>
    </g>
    <!--header-skills-->
    <g id="header-skill-1">
        <path d="M0.0546875 15.7949V21.1035L15.1016 28.4512V22.9492L5.13477 18.4492L15.1016 13.9668V8.46484L0.0546875 15.7949ZM34.3145 0.976562L18.2656 36.0449H23.8027L39.8516 0.976562H34.3145Z"
              fill="#00C4F0"/>
    </g>
    <g id="header-skill-2">
        <path d="M0.109375 0.792969V14.4688C0.109375 15.5762 0.232422 16.666 0.478516 17.6855C1.65625 22.5723 5.54102 26.0176 11.0254 26.0176C16.5098 26.0176 20.377 22.5723 21.5547 17.6855C21.7832 16.666 21.9238 15.5762 21.9238 14.4688V0.792969H16.668V14.5566C16.668 15.3652 16.5625 16.1562 16.3516 16.9121C15.7012 19.2676 13.9609 21.1484 11.0078 21.1484C8.08984 21.1484 6.34961 19.2676 5.68164 16.9121C5.4707 16.1562 5.36523 15.3652 5.36523 14.5566V0.792969H0.109375ZM26.4238 26H31.6973V0.792969H26.4238V26Z"
              fill="#00C4F0"/>
    </g>
    <g id="header-skill-3">
        <path d="M0.109375 0.792969V14.4688C0.109375 15.5762 0.232422 16.666 0.478516 17.6855C1.65625 22.5723 5.54102 26.0176 11.0254 26.0176C16.5098 26.0176 20.377 22.5723 21.5547 17.6855C21.7832 16.666 21.9238 15.5762 21.9238 14.4688V0.792969H16.668V14.5566C16.668 15.3652 16.5625 16.1562 16.3516 16.9121C15.7012 19.2676 13.9609 21.1484 11.0078 21.1484C8.08984 21.1484 6.34961 19.2676 5.68164 16.9121C5.4707 16.1562 5.36523 15.3652 5.36523 14.5566V0.792969H0.109375ZM23.998 26H30.4844L36.6719 16.9297L42.8594 26H49.3633L39.7129 12.6934L48.3262 0.810547H41.875L36.6719 8.42188L31.4688 0.810547H25.0176L33.6309 12.6934L23.998 26Z"
              fill="#00C4F0"/>
    </g>
    <g id="header-skill-4">
        <path d="M5.62891 11.0234V5.66211H12.0098C13.0469 5.66211 13.5215 5.75 13.9434 5.92578C14.9629 6.33008 15.7188 7.17383 15.7188 8.35156C15.7188 9.56445 14.9277 10.373 13.9434 10.7773C13.5039 10.9531 13.0293 11.0234 12.0273 11.0234H5.62891ZM5.62891 26V15.8574H12.7129C14.8574 15.8574 16.3164 15.4355 17.5117 14.6797C19.5859 13.3789 20.9043 11.1113 20.9043 8.35156C20.9043 5.48633 19.5859 3.25391 17.5469 1.98828C16.334 1.21484 14.8574 0.810547 12.7129 0.810547H0.373047V26H5.62891ZM22.8906 21.6406C26.3887 24.7695 30.2734 26 33.6309 26C39.0449 26 43.2461 22.7305 43.2461 18.2832C43.2461 12.5703 38.1133 11.1465 33.877 10.4434C30.3086 9.8457 28.2344 9.37109 28.2344 7.71875C28.2344 6.20703 30.1855 5.53906 32.0312 5.53906C34.2988 5.53906 36.7422 6.38281 38.4121 7.78906L41.4004 4.04492C38.6055 1.84766 35.2832 0.775391 32.1016 0.775391C26.3535 0.775391 23.1367 4.0625 23.1367 8.19336C23.1367 12.2363 26.5117 13.9941 30.7305 14.873C34.4395 15.6465 38.0781 15.9453 38.0781 18.3008C38.0781 20.2344 35.6875 21.1133 33.543 21.1133C30.7832 21.1133 28.1465 19.7773 26.0547 17.8613L22.8906 21.6406Z"
              fill="#00C4F0"/>
    </g>

    <!--main-skills-->
    <g id="main-skill-1">
        <path fill-rule="evenodd" clip-rule="evenodd"
              d="M63.498 78.6435C63.4984 78.9518 63.438 79.2571 63.3202 79.542C63.2024 79.8269 63.0295 80.0857 62.8115 80.3037C62.5935 80.5217 62.3347 80.6946 62.0498 80.8124C61.7649 80.9302 61.4596 80.9906 61.1513 80.9902L34.6348 80.9902C34.3265 80.9906 34.0212 80.9302 33.7363 80.8124C33.4514 80.6946 33.1925 80.5217 32.9745 80.3037C32.7566 80.0857 32.5837 79.8269 32.4659 79.542C32.3481 79.2571 32.2877 78.9518 32.2881 78.6435L32.2881 66.0349L24.0547 52.306C23.4275 51.2609 23.0828 50.0707 23.0543 48.8521C23.0258 47.6336 23.3146 46.4286 23.8923 45.3553L47.893 0.777771L71.8971 45.3586C72.4736 46.4311 72.7617 47.6349 72.7332 48.8521C72.7047 50.0693 72.3607 51.2583 71.7347 52.3027L63.498 66.0283L63.498 78.6435ZM59.8255 63.0385L67.7141 49.893C67.9236 49.5441 68.0387 49.1467 68.048 48.7399C68.0573 48.3331 67.9605 47.9308 67.7672 47.5728L47.8964 10.6651L28.0189 47.5794C27.8279 47.9365 27.7327 48.3371 27.7426 48.742C27.7524 49.1468 27.8671 49.5423 28.0753 49.8897L35.9639 63.0418L59.8288 63.0418L59.8255 63.0385Z"
              fill="#00C4F0"/>
        <path fill-rule="evenodd" clip-rule="evenodd"
              d="M47.6943 11.0398L44.5786 42.1834C43.923 42.839 43.4766 43.6742 43.2957 44.5835C43.1149 45.4928 43.2077 46.4353 43.5625 47.2918C43.9173 48.1483 44.5181 48.8804 45.2889 49.3955C46.0598 49.9106 46.9661 50.1855 47.8932 50.1855C48.8203 50.1855 49.7265 49.9106 50.4974 49.3955C51.2682 48.8804 51.8691 48.1483 52.2238 47.2918C52.5786 46.4353 52.6715 45.4928 52.4906 44.5835C52.3097 43.6742 51.8633 42.839 51.2077 42.1834L48.092 11.0398L47.8932 10.6685L47.6943 11.0398Z"
              fill="#00C4F0"/>
    </g>
    <g id="main-skill-2">
        <path d="M0.8125 7.39062V25.625C0.8125 27.1016 0.976562 28.5547 1.30469 29.9141C2.875 36.4297 8.05469 41.0234 15.3672 41.0234C22.6797 41.0234 27.8359 36.4297 29.4062 29.9141C29.7109 28.5547 29.8984 27.1016 29.8984 25.625V7.39062H22.8906V25.7422C22.8906 26.8203 22.75 27.875 22.4688 28.8828C21.6016 32.0234 19.2812 34.5312 15.3438 34.5312C11.4531 34.5312 9.13281 32.0234 8.24219 28.8828C7.96094 27.875 7.82031 26.8203 7.82031 25.7422V7.39062H0.8125ZM32.6641 41H41.3125L49.5625 28.9062L57.8125 41H66.4844L53.6172 23.2578L65.1016 7.41406H56.5L49.5625 17.5625L42.625 7.41406H34.0234L45.5078 23.2578L32.6641 41ZM89.1953 0.96875L67.7969 47.7266H75.1797L96.5781 0.96875H89.1953ZM100.328 7.39062V25.625C100.328 27.1016 100.492 28.5547 100.82 29.9141C102.391 36.4297 107.57 41.0234 114.883 41.0234C122.195 41.0234 127.352 36.4297 128.922 29.9141C129.227 28.5547 129.414 27.1016 129.414 25.625V7.39062H122.406V25.7422C122.406 26.8203 122.266 27.875 121.984 28.8828C121.117 32.0234 118.797 34.5312 114.859 34.5312C110.969 34.5312 108.648 32.0234 107.758 28.8828C107.477 27.875 107.336 26.8203 107.336 25.7422V7.39062H100.328ZM135.414 41H142.445V7.39062H135.414V41Z"
              fill="#00C4F0"/>
    </g>
    <g id="main-skill-3">
        <g clip-path="url(#clip0_4_6719)">
            <path d="M19.2431 0H74.0627V16.3094H19.2431V0Z" fill="#00C4F0"/>
            <path d="M19.2431 29.3438H74.0627V45.6531H19.2431V29.3438Z" fill="#00C4F0"/>
            <path d="M19.2431 58.6906H74.0627V75H19.2431V58.6906Z" fill="#00C4F0"/>
            <path d="M0 0H13.9795V16.3094H0V0Z" fill="#00C4F0"/>
            <path d="M0 29.3438H13.9795V45.6531H0V29.3438Z" fill="#00C4F0"/>
            <path d="M0 58.6906H13.9795V75H0V58.6906Z" fill="#00C4F0"/>
        </g>
        <defs>
            <clipPath id="clip0_4_6719">
                <rect width="75" height="75" fill="white"/>
            </clipPath>
        </defs>
    </g>
    <g id="main-skill-4">
        <path d="M9.375 37.5H37.5V65.625H9.375V37.5Z" fill="#00C4F0"/>
        <path d="M37.5 9.375H65.625V37.5H37.5V9.375Z" fill="#00C4F0"/>
    </g>
    <g id="main-skill-5">
        <path d="M23.0468 52.4406L26.9531 47.5594L14.3781 37.5L26.9531 27.4406L23.0468 22.5594L7.42185 35.0594C7.05574 35.3521 6.76018 35.7235 6.55707 36.146C6.35396 36.5684 6.2485 37.0312 6.2485 37.5C6.2485 37.9687 6.35396 38.4315 6.55707 38.854C6.76018 39.2765 7.05574 39.6478 7.42185 39.9406L23.0468 52.4406ZM51.9531 22.5594L48.0468 27.4406L60.6218 37.5L48.0468 47.5594L51.9531 52.4406L67.5781 39.9406C67.9442 39.6478 68.2398 39.2765 68.4429 38.854C68.646 38.4315 68.7514 37.9687 68.7514 37.5C68.7514 37.0312 68.646 36.5684 68.4429 36.146C68.2398 35.7235 67.9442 35.3521 67.5781 35.0594L51.9531 22.5594ZM46.8 10.05L34.3 66.3L28.1968 64.9437L40.6968 8.69373L46.8 10.05Z"
              fill="#00C4F0"/>
    </g>
    <g id="main-skill-6">
        <path d="M0 18.75C0 18.75 0 9.375 9.375 9.375H65.625C65.625 9.375 75 9.375 75 18.75V46.875C75 46.875 75 56.25 65.625 56.25H46.875C46.875 59.3766 47.2641 61.7203 48.0469 63.2812H51.5625C52.1841 63.2812 52.7802 63.5282 53.2198 63.9677C53.6593 64.4073 53.9062 65.0034 53.9062 65.625C53.9062 66.2466 53.6593 66.8427 53.2198 67.2823C52.7802 67.7218 52.1841 67.9688 51.5625 67.9688H23.4375C22.8159 67.9688 22.2198 67.7218 21.7802 67.2823C21.3407 66.8427 21.0938 66.2466 21.0938 65.625C21.0938 65.0034 21.3407 64.4073 21.7802 63.9677C22.2198 63.5282 22.8159 63.2812 23.4375 63.2812H26.9531C27.7359 61.7203 28.125 59.3766 28.125 56.25H9.375C9.375 56.25 0 56.25 0 46.875V18.75ZM6.55312 14.7422C6.03823 15.1007 5.62743 15.5891 5.3625 16.1578C4.96293 16.9834 4.73339 17.8808 4.6875 18.7969V46.875C4.6875 48.3984 5.05312 49.2281 5.36719 49.6969C5.69531 50.1891 6.16406 50.5781 6.78281 50.8875C7.57283 51.2702 8.42893 51.4977 9.30469 51.5578L9.42188 51.5625H65.625C67.1484 51.5625 67.9781 51.1969 68.4469 50.8828C68.9618 50.5243 69.3726 50.0359 69.6375 49.4672C70.0202 48.6772 70.2477 47.8211 70.3078 46.9453L70.3125 46.8281V18.75C70.3125 17.2266 69.9469 16.3969 69.6328 15.9281C69.2745 15.4131 68.786 15.0022 68.2172 14.7375C67.3916 14.3379 66.4942 14.1084 65.5781 14.0625H9.375C7.85156 14.0625 7.02187 14.4281 6.55312 14.7422Z"
              fill="#00C4F0"/>
    </g>
    <g id="main-skill-7">
        <path d="M43.75 6.25H12.5C10.8424 6.25 9.25268 6.90848 8.08058 8.08058C6.90848 9.25268 6.25 10.8424 6.25 12.5V43.75H12.5V12.5H43.75V6.25ZM56.25 18.75H25C23.3424 18.75 21.7527 19.4085 20.5806 20.5806C19.4085 21.7527 18.75 23.3424 18.75 25V56.25H25V25H56.25V18.75ZM62.5 31.25H37.5C35.8424 31.25 34.2527 31.9085 33.0806 33.0806C31.9085 34.2527 31.25 35.8424 31.25 37.5V62.5C31.25 64.1576 31.9085 65.7473 33.0806 66.9194C34.2527 68.0915 35.8424 68.75 37.5 68.75H62.5C65.9375 68.75 68.75 65.9375 68.75 62.5V37.5C68.75 34.0625 65.9375 31.25 62.5 31.25Z"
              fill="#00C4F0"/>
    </g>

</svg>